# xmcd
#
# Track frame offsets:
#	150
#	9104
#	19416
#	28351
#	40678
#	54288
#	64285
#	79594
#	88955
#	101280
#	110942
#	123841
#	134994
#	145246
#	157487
#	171326
#
# Disc length: 2432 seconds
#
# Revision: 0
# Processed by: cddbd v1.5.1PL2 Copyright (c) Steve Scherf et al.
# Submitted via: audiograbber 1.83.01
#
DISCID=e6097e10
DTITLE=Verschiedene - The Country Collection - Country Cowboys
DYEAR=2005
DGENRE=Country
TTITLE0=Gene Autry - Tears on my Pillow
TTITLE1=Roger Miller - Release me
TTITLE2=Buck Owens - Rhythm and Booze
TTITLE3=Don Williams - There's never been a time
TTITLE4=Bill Monroe - Blue Moon of Kentucky
TTITLE5=Johnny Cash - Get Rhythm
TTITLE6=Kenny Rogers - My Washington Woman
TTITLE7=Willie Nelson - I'm Building Heartaches
TTITLE8=Bobby Bare - When love is gone
TTITLE9=Hank Locklin - Happy Journey
TTITLE10=Hank Williams - On the banks of the old Pontchartrain
TTITLE11=Dave Dudley - Cowboy Boots
TTITLE12=Faron Young - Live fast love Hard die young
TTITLE13=Merle Haggard - The roots of my raising
TTITLE14=Freddy Fender - Baby i want to love you
TTITLE15=Conway Twitty - It's only make believe
EXTD=
EXTT0=
EXTT1=
EXTT2=
EXTT3=
EXTT4=
EXTT5=
EXTT6=
EXTT7=
EXTT8=
EXTT9=
EXTT10=
EXTT11=
EXTT12=
EXTT13=
EXTT14=
EXTT15=
PLAYORDER=
